<svg width="1440" height="820" viewBox="0 0 1440 820" fill="none" xmlns="http://www.w3.org/2000/svg">
<mask id="path-1-inside-1" fill="white">
<rect width="1440" height="820" rx="10"/>
</mask>
<rect width="1440" height="820" rx="10" stroke="#8877FF" stroke-width="120" mask="url(#path-1-inside-1)"/>
<path d="M565.686 517V301H511.103L396.973 467.67L377.708 443.443C412.151 438.189 431.416 407.832 431.416 375.432C431.416 344.492 414.486 318.514 391.719 308.589C380.335 303.627 363.405 301 340.93 301H270V517H322.832V447.238H323.416L373.33 517H429.081L448.054 485.768H510.519V517H565.686ZM322.832 409.584V349.454H343.849C364.573 349.454 378.584 359.962 378.584 378.643C378.584 398.492 365.449 409.584 343.557 409.584H322.832ZM510.519 441.984H474.324L509.935 382.146H510.519V441.984Z" fill="#8877FF"/>
<path d="M787.075 517V301H734.243L736.578 437.605L652.513 301H604.934V517H657.767L656.307 385.065L739.205 517H787.075Z" fill="#8877FF"/>
<path d="M946.386 517V468.546H879.251V431.476H944.343V383.022H879.251V349.454H946.386V301H826.419V517H946.386Z" fill="#8877FF"/>
<path d="M1165.69 517L1089.51 408.708L1161.02 301H1103.23L1042.22 398.2H1041.64V301H986.469V517H1041.64V423.595H1042.22L1101.18 517H1165.69Z" fill="#8877FF"/>
</svg>
